<svg xmlns="http://www.w3.org/2000/svg" viewBox="0 0 320 168" width="320" height="168">
  <!-- FocusForLife: shield mark from the Android app (ic_ffl_logo.xml) + Urbanist wordmark as paths -->
  <style>.strong{fill:#FFFFFF}.soft{fill:#9FC2CE}</style>
  <g transform="translate(112,4) scale(4)">
    <path fill="#18586B" d="M12,1.6 L20.4,4.7 L20.4,11 C20.4,16.7 17,20.8 12,22.5 C7,20.8 3.6,16.7 3.6,11 L3.6,4.7 Z"/>
    <g transform="translate(12 12) scale(0.78) translate(-12 -12)">
      <path fill="#F2A33C" d="M12,1.6 L20.4,4.7 L20.4,11 C20.4,16.7 17,20.8 12,22.5 C7,20.8 3.6,16.7 3.6,11 L3.6,4.7 Z"/>
    </g>
    <g transform="translate(12 12) scale(0.52) translate(-12 -12)">
      <path fill="#FFFFFF" d="M16,6 L18.29,8.29 L13.41,13.17 L9.41,9.17 L2,16.59 L3.41,18 L9.41,12 L13.41,16 L19.71,9.71 L22,12 L22,6 Z"/>
    </g>
  </g>
  <g transform="translate(51.95,146)">
<g id="wordmark" data-width="216.1">
<path class="strong" transform="translate(0.00,0) scale(0.015000,-0.015000)" d="M120 0V1400H950V1122H398V889H854V611H398V0Z"/>
<path class="strong" transform="translate(15.55,0) scale(0.015000,-0.015000)" d="M750 -26Q608 -26 483.0 30.5Q358 87 263.0 187.0Q168 287 114.0 418.5Q60 550 60 700Q60 850 114.0 981.5Q168 1113 263.0 1213.0Q358 1313 483.0 1369.5Q608 1426 750 1426Q893 1426 1018.0 1369.5Q1143 1313 1238.0 1213.0Q1333 1113 1386.5 981.5Q1440 850 1440 700Q1440 550 1386.5 418.5Q1333 287 1238.0 187.0Q1143 87 1018.0 30.5Q893 -26 750 -26ZM750 252Q863 252 956.5 313.0Q1050 374 1106.0 475.5Q1162 577 1162 700Q1162 823 1106.0 924.5Q1050 1026 956.5 1087.0Q863 1148 750 1148Q637 1148 543.5 1087.0Q450 1026 394.0 924.5Q338 823 338 700Q338 577 394.0 475.5Q450 374 543.5 313.0Q637 252 750 252Z"/>
<path class="strong" transform="translate(39.05,0) scale(0.015000,-0.015000)" d="M748 -26Q606 -26 481.0 30.5Q356 87 261.5 187.0Q167 287 113.5 418.5Q60 550 60 700Q60 851 113.5 982.5Q167 1114 261.5 1213.5Q356 1313 481.0 1369.5Q606 1426 748 1426Q918 1426 1061.0 1347.0Q1204 1268 1298 1138L1050 1004Q994 1069 916.0 1108.5Q838 1148 748 1148Q635 1148 542.0 1087.5Q449 1027 393.5 925.0Q338 823 338 700Q338 577 393.5 475.5Q449 374 542.0 313.0Q635 252 748 252Q838 252 916.0 291.5Q994 331 1050 397L1298 262Q1204 131 1061.0 52.5Q918 -26 748 -26Z"/>
<path class="strong" transform="translate(61.02,0) scale(0.015000,-0.015000)" d="M686 -26Q518 -26 390.5 56.0Q263 138 191.5 276.5Q120 415 120 584V1400H398V584Q398 493 432.5 417.5Q467 342 531.0 297.0Q595 252 686 252Q779 252 842.5 297.0Q906 342 939.5 417.0Q973 492 973 584V1400H1251V584Q1251 415 1180.0 276.5Q1109 138 981.5 56.0Q854 -26 686 -26Z"/>
<path class="strong" transform="translate(82.58,0) scale(0.015000,-0.015000)" d="M592 -26Q496 -26 392.5 11.5Q289 49 200.5 112.5Q112 176 60 253L290 411Q310 382 358.0 345.5Q406 309 468.0 281.5Q530 254 590 254Q638 254 684.5 272.0Q731 290 761.5 324.0Q792 358 792 404Q792 473 730.5 523.5Q669 574 589 589Q354 630 231.0 748.0Q108 866 108 1020Q108 1135 168.5 1223.5Q229 1312 328.0 1362.5Q427 1413 542 1413Q643 1413 730.5 1376.5Q818 1340 882.5 1279.5Q947 1219 980 1147L727 1028Q702 1084 645.5 1108.5Q589 1133 541 1133Q487 1133 437.0 1102.5Q387 1072 387 1020Q387 968 435.0 930.0Q483 892 538 879Q687 842 807.5 784.0Q928 726 998.5 635.0Q1069 544 1069 406Q1069 280 1003.5 182.5Q938 85 829.0 29.5Q720 -26 592 -26Z"/>
<path class="soft" transform="translate(100.52,0) scale(0.015000,-0.015000)" d="M120 0V1400H940V1244H276V828H844V672H276V0Z"/>
<path class="soft" transform="translate(115.92,0) scale(0.015000,-0.015000)" d="M750 -26Q608 -26 483.0 30.5Q358 87 263.0 187.0Q168 287 114.0 418.5Q60 550 60 700Q60 850 114.0 981.5Q168 1113 263.0 1213.0Q358 1313 483.0 1369.5Q608 1426 750 1426Q893 1426 1018.0 1369.5Q1143 1313 1238.0 1213.0Q1333 1113 1386.5 981.5Q1440 850 1440 700Q1440 550 1386.5 418.5Q1333 287 1238.0 187.0Q1143 87 1018.0 30.5Q893 -26 750 -26ZM750 130Q861 130 958.0 175.0Q1055 220 1128.5 299.0Q1202 378 1243.0 481.0Q1284 584 1284 700Q1284 817 1242.5 920.0Q1201 1023 1127.5 1102.0Q1054 1181 957.0 1225.5Q860 1270 750 1270Q639 1270 542.0 1225.0Q445 1180 371.5 1101.0Q298 1022 257.0 919.0Q216 816 216 700Q216 583 257.5 479.5Q299 376 372.5 297.5Q446 219 543.0 174.5Q640 130 750 130Z"/>
<path class="soft" transform="translate(139.42,0) scale(0.015000,-0.015000)" d="M120 0V1400H605Q717 1400 807.5 1345.0Q898 1290 951.0 1197.0Q1004 1104 1004 989Q1004 888 963.0 804.5Q922 721 851.5 665.0Q781 609 691 590L1032 0H852L517 578H276V0ZM276 734H590Q661 734 719.5 768.5Q778 803 813.0 863.0Q848 923 848 998Q848 1073 813.0 1133.0Q778 1193 719.5 1227.5Q661 1262 590 1262H276Z"/>
<path class="strong" transform="translate(157.37,0) scale(0.015000,-0.015000)" d="M120 0V1400H398V278H961V0Z"/>
<path class="strong" transform="translate(174.28,0) scale(0.015000,-0.015000)" d="M150 0V1400H428V0Z"/>
<path class="strong" transform="translate(183.95,0) scale(0.015000,-0.015000)" d="M120 0V1400H950V1122H398V889H854V611H398V0Z"/>
<path class="strong" transform="translate(199.50,0) scale(0.015000,-0.015000)" d="M120 0V1400H1007V1122H398V889H872V611H398V278H1007V0Z"/>
</g>
  </g>
</svg>
